<?xml version="1.0" standalone="no"?>
<!DOCTYPE svg PUBLIC "-//W3C//DTD SVG 20010904//EN"
 "http://www.w3.org/TR/2001/REC-SVG-20010904/DTD/svg10.dtd">
<svg version="1.0" xmlns="http://www.w3.org/2000/svg"
 width="512.000000pt" height="512.000000pt" viewBox="0 0 512.000000 512.000000"
 preserveAspectRatio="xMidYMid meet">
<metadata>
Created by potrace 1.14, written by Peter Selinger 2001-2017
</metadata>
<g transform="translate(0.000000,512.000000) scale(0.100000,-0.100000)"
fill="#000000" stroke="none">
<path d="M2445 5070 c-468 -47 -857 -383 -982 -848 -23 -85 -27 -117 -27 -257
0 -149 2 -168 31 -277 91 -332 331 -853 686 -1488 179 -321 322 -554 354 -580
33 -26 73 -25 107 1 48 38 384 621 596 1034 264 514 405 855 461 1116 18 85
21 123 16 228 -7 168 -38 289 -116 446 -160 320 -446 540 -791 608 -100 20
-237 27 -335 17z m218 -585 c199 -42 376 -217 416 -413 93 -449 -369 -806
-777 -601 -183 91 -292 268 -294 475 -1 157 49 279 160 392 132 134 309 187
495 147z"/>
<path d="M1020 2701 c-217 -87 -408 -165 -425 -174 -45 -23 -96 -77 -116 -122
-10 -22 -122 -459 -249 -970 -246 -991 -244 -978 -204 -1057 47 -94 139 -145
243 -135 31 3 344 82 696 176 455 122 656 172 697 172 47 1 187 -42 890 -269
458 -149 851 -273 873 -276 26 -4 302 27 778 88 800 103 795 102 856 172 30
34 61 116 61 163 0 32 -457 1895 -476 1940 -38 90 -125 151 -217 151 -27 0
-212 -32 -411 -70 -198 -39 -408 -80 -466 -91 l-106 -21 -124 -222 c-68 -121
-188 -331 -268 -466 -163 -276 -209 -330 -320 -383 -62 -30 -75 -32 -173 -32
-101 0 -108 1 -182 38 -56 28 -90 53 -127 95 -99 112 -523 861 -728 1285 -45
94 -86 167 -94 166 -7 0 -191 -71 -408 -158z"/>
</g>
</svg>
